# xmcd CD database file
#
# Track frame offsets:
#	150
#	24445
#	46570
#	68547
#	91907
#	115005
#	137260
#	164362
#	203110
#	225812
#	238067
#
# Disc length: 3574 seconds
#
# Revision: 0
# Processed by: cddbd v1.4PL0 Copyright (c) Steve Scherf et al.
# Submitted via: CDex 1.51
#
DISCID=740df40b
DTITLE=Bill Evans - Ballads and More
DYEAR=1999
DGENRE=Jazz
TTITLE0=Blue in green
TTITLE1=When I fall in love
TTITLE2=Some day my prince will come
TTITLE3=Elsa
TTITLE4=The boy next door
TTITLE5=My foolish heart
TTITLE6=Porgy ( I Lives you, Porgy)
TTITLE7=Allice in wonderland
TTITLE8=Polka dots and moonbeams
TTITLE9=I fall in love too easily
TTITLE10=Peace piece
EXTD=YEAR: 1999
EXTT0=
EXTT1=
EXTT2=
EXTT3=
EXTT4=
EXTT5=
EXTT6=
EXTT7=
EXTT8=
EXTT9=
EXTT10=
PLAYORDER=
